<svg width="99" height="105" viewBox="0 0 99 105" fill="none" xmlns="http://www.w3.org/2000/svg">
<path d="M92.1809 28.0542L49.2593 3.27344L6.75183 27.6297L6.67191 77.037L49.5935 101.818L92.4863 77.1286L92.1809 28.0542Z" fill="#F2EBE9"/>
<path d="M67.7978 19.9251L49.6908 9.47096L31.7584 19.746L31.7247 40.5891L49.8318 51.0433L67.9267 40.6278L67.7978 19.9251Z" fill="#243A73"/>
<path d="M87.3588 53.6902L69.2518 43.2361L51.3194 53.5111L51.2857 74.3543L69.3927 84.8084L87.4877 74.3929L87.3588 53.6902Z" fill="#243A73"/>
<path d="M48.328 53.6479L30.2209 43.1937L12.2886 53.4688L12.2548 74.3119L30.3619 84.766L48.4569 74.3506L48.328 53.6479Z" fill="#243A73"/>
<path d="M54.1808 23.0246H54.1541C53.5677 25.0236 51.8086 30.6209 50.4759 34.7522H50.4493L50.3426 34.3524C51.1156 31.1273 52.8747 23.1045 53.0347 22.2783C53.088 21.9584 53.1413 21.5853 53.1946 21.1322C53.5944 21.1588 55.3535 21.1855 55.5401 21.1855C55.7267 21.1855 57.5924 21.1322 58.4454 21.0255V21.1588C57.8856 21.3987 57.086 21.7985 56.6063 22.0384C56.6596 23.451 56.8995 29.2882 56.9261 30.4343L57.779 39.0968L60.3111 40.1096V40.2162C59.3249 40.2162 57.246 40.0829 56.6862 40.0563C56.553 40.0563 55.5401 40.2429 55.087 40.2962C55.007 39.8164 55.007 39.4966 54.9804 39.1767C54.9004 37.3909 54.6872 31.7137 54.6339 30.4077C54.5806 29.4215 54.314 25.1835 54.1808 23.0246ZM50.316 36.8578L48.9566 41.2291H48.8767C48.6901 40.3228 46.4779 31.3672 46.1847 30.1678C45.8648 29.0217 44.2656 23.1578 43.9724 22.0917C43.4127 21.9584 41.6535 21.532 40.6673 21.2921V21.1588H44.6654C45.0386 21.1588 46.1047 20.9989 46.6911 20.9189C46.7444 21.1855 46.771 21.5053 46.7977 21.6919C46.9843 22.5448 48.1037 27.9022 48.3969 29.4748C48.6368 30.381 50.0495 35.8184 50.316 36.8578ZM43.3061 22.8913L43.5459 22.9446C43.386 28.1154 43.0395 33.8993 43.1195 39.0701C43.4926 39.2833 44.6654 39.8964 45.0386 40.0563V40.1363C43.8924 40.0563 42.7197 39.923 42.5065 39.923C42.2666 39.923 40.8539 40.1363 40.4808 40.2162C40.6407 39.9497 41.0405 39.39 41.2004 39.1234C41.5736 36.5913 42.5598 28.222 43.3061 22.8913Z" fill="#F2EBE9"/>
<path d="M30.0198 66.1027V66.0228C32.392 66.0228 33.3248 66.0228 33.618 65.9961C33.9112 65.9428 35.2972 65.8096 35.7503 65.7296L35.4305 66.7691C35.3239 67.8352 35.2706 68.928 35.1906 69.9942C35.1906 70.3407 35.1906 72.3397 35.2439 72.7928C35.6437 73.0061 36.3101 73.3792 36.9764 73.7257V73.779C35.9103 73.7524 34.7375 73.6724 34.2844 73.6724C33.9912 73.7257 33.3515 73.8057 32.6052 73.8856C32.6585 73.4592 32.925 70.5273 32.925 69.8609C32.925 69.2479 32.925 67.5687 32.8717 66.9823C32.232 66.7957 31.1126 66.4492 30.0198 66.1027ZM24.156 64.6901C24.156 59.7325 26.7414 54.8549 31.8855 54.695V54.7483C28.3139 55.4946 27.0346 60.2123 27.0346 64.5302C27.0346 66.6358 27.2745 67.8619 27.7009 69.2212C28.154 70.7405 29.1935 73.2459 31.8056 73.6724V73.7524C31.4591 73.8057 31.3258 73.8057 31.006 73.8057C28.3139 73.8057 26.2883 71.9399 25.2754 70.0741C24.689 68.9813 24.156 67.2222 24.156 64.6901ZM35.1106 61.385H35.004L34.0711 55.3346L32.4719 54.8549V54.8016C33.618 54.5084 33.9112 54.4551 34.6842 54.2152C34.9507 54.0286 35.2439 53.7621 35.4838 53.5488L35.1106 61.385Z" fill="#F2EBE9"/>
<path d="M73.0211 59.7482H72.9411L72.0349 55.4836L69.2896 55.0305L69.2629 54.9239C70.1158 54.764 71.9283 54.4441 72.3014 54.3375L73.5275 53.7778L73.0211 59.7482ZM68.5699 55.2171V55.297C67.9036 56.0433 67.3172 56.9762 67.3172 58.3356C67.3172 59.9881 68.7831 61.2408 71.3419 63.7196C72.8345 65.1589 73.8473 66.4383 73.8473 68.464C73.8473 70.1432 73.0744 73.3149 69.5028 73.6614V73.5815C70.9687 72.9418 71.5551 71.7424 71.5551 70.1965C71.5551 67.6377 69.4495 65.8786 68.9431 65.4255C68.1968 64.7591 65.1849 62.3336 65.1849 59.6683C65.1849 56.8963 67.1039 55.7235 68.5699 55.2171ZM64.5718 75.0208L64.6518 68.3041H64.7584L65.9845 73.2083L68.9164 73.7681V73.848L65.4781 74.4078L64.5718 75.0208Z" fill="#F2EBE9"/>
</svg>
